<svg id="Layer_1" data-name="Layer 1" xmlns="http://www.w3.org/2000/svg" viewBox="0 0 512 512"><title>envelope_open</title><path d="M121.51,238.8s-1.22,3.89-1.13-2.66l-.48-5.24-1.2-3.84.36-3.82s3.14-1.09,38.06-3.28A235.28,235.28,0,0,1,190,217.77s136.72,1.13,147,3.43c0,0-85.72-3.28-91.11-2.24,0,0,82,2.69,88.23,4.78,0,0-79.48-3.1-86.57-.42,0,0,73.19,2.83,82,5.49,0,0-14-1.06-17.79-.74l6.55.81-10.54-.1-6.09-.62s16.51,1.83,17.66,2.74c0,0,7.51-1.09-22.27-.69C297.06,230.21,226.65,223.78,121.51,238.8Z" fill="#e6e4e3"/><path d="M121.51,270.22s-1.22,3.87-1.13-2.68l-.48-5.23-1.2-3.84.36-3.82s3.14-1.09,38.06-3.27A235.28,235.28,0,0,1,190,249.2s136.72,1.13,147,3.42c0,0-85.72-3.28-91.11-2.26,0,0,82,2.71,88.23,4.8,0,0-79.48-3.08-86.57-.42,0,0,73.19,2.84,82,5.49,0,0-14-1.06-17.79-.72l6.55.81-10.54-.12-6.09-.61s16.51,1.82,17.66,2.74c0,0,7.51-1.11-22.27-.69C297.06,261.64,226.65,255.21,121.51,270.22Z" fill="#e6e4e3"/><path d="M136.07,302.38s-1.13,3.89-1-2.66l-.45-5.25-1.11-3.84.34-3.8s2.93-1.11,35.5-3.3a204.73,204.73,0,0,1,30.61-2.19s127.47,1.14,137.05,3.43c0,0-79.93-3.28-85-2.24,0,0,76.43,2.71,82.27,4.78,0,0-74.11-3.1-80.73-.4,0,0,68.25,2.83,76.5,5.49,0,0-13.09-1.06-16.59-.74l6.11.81-9.83-.12-5.67-.62s15.38,1.83,16.44,2.76c0,0,7-1.09-20.74-.69C299.77,293.8,234.1,287.37,136.07,302.38Z" fill="#e6e4e3"/><path d="M169.05,334.7s-1,3.89-.88-2.66l-.38-5.24-.93-3.84.28-3.84s2.45-1.09,29.67-3.28a144.81,144.81,0,0,1,25.58-2.17s106.54,1.13,114.56,3.43c0,0-66.8-3.3-71-2.24,0,0,63.89,2.69,68.77,4.78,0,0-62-3.1-67.48-.42,0,0,57.06,2.83,64,5.49,0,0-11-1.06-13.89-.74l5.12.81-8.21-.12-4.76-.62s12.88,1.83,13.75,2.76c0,0,5.87-1.11-17.34-.69C305.87,326.12,251,319.69,169.05,334.7Z" fill="#e6e4e3"/><path d="M202.06,372.6s-.69,3.9-.64-2.64l-.27-5.24-.67-3.84.2-3.84s1.78-1.09,21.46-3.28a76.8,76.8,0,0,1,18.5-2.17s77.07,1.13,82.84,3.43c0,0-48.31-3.32-51.34-2.26,0,0,46.18,2.69,49.72,4.8,0,0-44.79-3.1-48.78-.44,0,0,41.24,2.84,46.24,5.5,0,0-7.93-1.06-10-.74l3.69.81-5.94-.12-3.43-.62s9.31,1.83,9.95,2.76c0,0,4.24-1.11-12.54-.69C301,364,261.3,357.61,202.06,372.6Z" fill="#e6e4e3"/><path d="M18.63,210.12s-7.52-1.62,5.12-1.53L33.84,208l7.41-1.63,7.35.47s2.11,4.26,6.33,51.45a226.1,226.1,0,0,1,4.2,44.37S57,487.32,52.51,501.21c0,0,6.35-115.81,4.33-123.12,0,0-5.2,110.76-9.21,119.27,0,0,5.94-107.45.82-117,0,0-5.48,98.88-10.6,110.85,0,0,2-19,1.42-24.05L37.73,476l.22-14.24,1.18-8.23s-3.52,22.28-5.29,23.83c0,0,2.13,10.17,1.33-30C35.16,447.33,47.57,352.17,18.63,210.12Z" fill="#e6e4e3"/><path d="M454.4,205.66s-7.62-1.53,5.2-1.45l10.27-.61,7.52-1.55,7.49.44s2.15,4.07,6.41,49.16a202.59,202.59,0,0,1,4.29,42.4s-2.2,176.47-6.73,189.72c0,0,6.45-110.65,4.41-117.62,0,0-5.29,105.82-9.37,113.93,0,0,6.06-102.64.81-111.76,0,0-5.55,94.46-10.76,105.92,0,0,2.07-18.13,1.43-23l-1.56,8.43.24-13.6,1.2-7.86s-3.58,21.29-5.39,22.77c0,0,2.17,9.71,1.36-28.71C471.21,432.3,483.8,341.38,454.4,205.66Z" fill="#e6e4e3"/><path d="M36.55,509.86s-2.42,7.25-2.27-4.95l-1-9.76L30.92,488l.7-7.12s6.3-2,76.32-6.11a509.19,509.19,0,0,1,65.82-4.06s274,2.09,294.56,6.38c0,0-171.79-6.13-182.62-4.17,0,0,164.29,5,176.89,8.92,0,0-159.36-5.76-173.54-.79,0,0,146.7,5.29,164.44,10.23,0,0-28.14-2-35.67-1.36l13.11,1.48-21.12-.2L397.61,490s33.06,3.4,35.38,5.12c0,0,15.06-2.07-44.6-1.28C388.39,493.87,247.27,481.87,36.55,509.86Z" fill="#e6e4e3"/><path d="M27.43,217.83s-5.31,2.95,1.74-3.89l5.1-6,2.92-5.2,4.41-3.69s4.25,1.9,40.92,33.56a302.67,302.67,0,0,1,34.63,29.64S250.39,396.32,258,408.74c0,0-80.79-86.8-87.22-90.94,0,0,77.75,82.51,81.72,90.8,0,0-74.92-80.5-84.69-84.59,0,0,68.94,74.12,74.83,85.54,0,0-12.68-14.76-16.72-18.06l5.59,7.19-10.25-10.35-5.34-6.56s14.27,17.94,14.43,20c0,0,8.58,6.16-21.15-22.33C209.23,379.45,146.83,304.22,27.43,217.83Z" fill="#e6e4e3"/><path d="M276.82,422s3.08,5.17-3.84-1.78l-6-5.1-5.19-3L258,407.86s1.71-4,31.13-37.67a256.38,256.38,0,0,1,27.5-31.78S442.1,216.82,453.88,210c0,0-81.39,73.53-85.2,79.49,0,0,77.35-70.79,85.32-74.26,0,0-75.55,68.18-79.14,77.32,0,0,69.53-62.75,80.4-67.9,0,0-13.87,11.48-16.95,15.2l6.8-5-9.69,9.32L429.22,249s16.93-12.91,19-13c0,0,5.64-7.89-21,19.25C427.24,255.31,356.39,311.78,276.82,422Z" fill="#e6e4e3"/><path d="M20.27,208.57s-5.61-3,1.84,4l5.36,6.19,3.1,5.35,4.65,3.8s4.49-2,43.2-34.66A316.2,316.2,0,0,0,115,162.67S255.62,24.2,263.69,11.38c0,0-85.29,89.63-92.06,93.92,0,0,82.07-85.23,86.24-93.82,0,0-79.07,83.18-89.4,87.39,0,0,72.78-76.55,79-88.33,0,0-13.39,15.25-17.65,18.65l5.9-7.42L224.89,32.45l-5.63,6.8S234.33,20.7,234.5,18.53c0,0,9-6.35-22.33,23.09C212.17,41.62,146.3,119.31,20.27,208.57Z" fill="#e6e4e3"/><path d="M271.25,1.88s3.3-5.27-4.12,1.82L260.7,8.89l-5.57,3-4,4.43s1.82,4,33.35,38.34A265.32,265.32,0,0,0,314,87s134.46,123.86,147.1,130.78c0,0-87.25-74.88-91.34-80.94,0,0,82.93,72.09,91.44,75.62,0,0-81-69.44-84.83-78.77,0,0,74.53,63.91,86.19,69.18,0,0-14.88-11.73-18.18-15.48l7.31,5.12L441.26,183l-6.63-4.9s18.16,13.13,20.33,13.2c0,0,6.08,8-22.47-19.61C432.49,171.71,356.55,114.18,271.25,1.88Z" fill="#e6e4e3"/><path d="M85.27,156.09s-1.77-7.64-2.08,5.3L82,171.78l-2.3,7.67.33,7.54s5.25,2,64.05,4.28a335.41,335.41,0,0,0,55.26,2.44s230.77-10.1,248.25-15.25c0,0-144.86,11.46-153.94,9.68,0,0,138.52-10,149.27-14.52,0,0-134.38,10.69-146.13,5.82,0,0,123.69-9.81,138.81-15.59,0,0-23.75,2.91-30.06,2.49l11.09-2-17.79.84-10.32,1.57s27.94-4.56,30-6.46c0,0,12.61,1.75-37.58,2.66C380.95,163,261.69,179.72,85.27,156.09Z" fill="#e6e4e3"/><path d="M85.17,161.32s5.82-1.5-4-1.45l-7.85-.66-5.76-1.57-5.72.4s-1.62,4-4.62,48.62c0,0-1.58,9.09-2.47,22.92L75,243.14C77.15,218.35,80.37,190.91,85.17,161.32Z" fill="#e6e4e3"/><path d="M440.16,165.88l-7.86-.66-5.76-1.56-5.72.42s-1.6,4-4.61,48.62a257.4,257.4,0,0,0-3,41.93s.05,3.77.19,10.08l20.7-16.51c2.14-24.54,5.35-51.65,10.06-80.86C444.13,167.35,450,165.85,440.16,165.88Z" fill="#e6e4e3"/></svg>