<svg id="Layer_1" data-name="Layer 1" xmlns="http://www.w3.org/2000/svg" viewBox="0 0 512 512"><title>padlock</title><path d="M93.67,226.13s-7.77-2.79,5.64-.66l10.84,1,8.08-.3L126,227.8c.34,0,.84,4.32,1.37,48.29a232.29,232.29,0,0,1,2.28,41.25S127.79,360,128.87,405c.86,44.89,3,91.94,1,98.69-.38-.2-.85-109.57-2.41-116.1-.82-.2.13,104.3-3.1,112.86-.32-.15-.74-101.74-5.87-110.41-.66-.12-.85,93.58-5.05,105.41,0,0,.84-18.13-.16-22.86l-1,8.47-.73-13.48.72-7.88s-2.3,21.36-4.08,23c0,0,2.91,9.48-.56-28.6.09,0,1.56-22.72-.5-62.09C105.45,352.41,99.3,297.09,93.67,226.13Z" fill="#e6e4e3"/><path d="M113.66,499.07c.05,0-6.59,5.17,1.82-5.6l6.13-9.11,3.78-7.24,5.37-5.92c.93-1.35,1.27,4.43,41.69,10.62A377.25,377.25,0,0,1,212.19,483c-.14.32,41.88,3.64,87.43,3.7,45.19.08,93.85,2.34,100.7,5.86-.77-2.05-112-7.27-118.27-5-.5.2,105.59,3.7,114.16,10.08-.39-1.68-103.31-6.73-112-.94-.25.2,94.37,4.23,105.54,11.24,0,0-18-2.81-22.85-2.09l8.41,1.8-13.54-.37L354,506.05s21.21,3.85,22.6,5.94c0,.12,9.69-2.51-28.49-1.58,0-.1-22.64-3.06-62.21-2-19.81.35-43.73,1.77-71.68,2.89-14,.5-29,.91-45.46.12C152.31,510.3,134.25,509,113.66,499.07Z" fill="#e6e4e3"/><path d="M115.94,239.83s-3,7.74-.39-5.72L117,223.17,117,215l1.91-7.79c0-.27,4-.72,46.13.17a193.3,193.3,0,0,1,39.7-.59s40.93,4.26,83.45,5.69c42.74,2.09,85.58-1.25,91.2-.76.2.2-24.3,2.84-50.79,2.27-26.33-.2-53.69-2.07-57-1.09,0,0,24.61,2.17,50.1,3.21,25.57,1.38,51.52.22,55.42,1.45.09.15-23.23,2.47-48.27,2.37-24.94.3-51.08-.5-55.43,2.17,0,1.18,88.48,5.5,100.1,6.88,0,.18-17.32.17-21.81,1.09l8.15.86c-4.29.44-8.6.72-12.89,1l-7.52-.76c0,.1,20.43,2.27,22.12,3.85,0-.32,9-2.66-27.53.77C333,235.12,250.12,230,115.94,239.83Z" fill="#e6e4e3"/><path d="M382.17,219.78s-7.88-2.47,5.6-1l10.87.49,8.05-.76,7.83,1.3c.24,0,1.36,4.48,3,51,.1,0,3.27,18.68,3,43.71-.12,0-1.51,45.34-1.35,92.8s.79,97-1.35,104c-.24-.1,2-115.34.3-122.34-.66-.15-2.09,110-5.72,118.76-.24-.08,1.89-107.06-3.3-116.33-.54-.08-2.78,98.49-7.47,110.69,0,0,1.31-19,.46-24l-1.29,8.89-.37-14.21.94-8.23s-2.9,22.37-4.71,24c0,0,2.67,10,.2-30,0,0,2.22-23.83.77-65.23C396.45,351.6,391,293.3,382.17,219.78Z" fill="#e6e4e3"/><path d="M171.06,218.88s11.52,4.66-8.53,1.25l-16.3-1.45-12.26,1L122.36,217s-.62-2.09-.07-15.25c1-13.18,1.54-37.57,14.31-82.25,1.27.72,2.84-39,41.87-82.17.73,1.53,15.53-23,60.56-35C261.28-3.13,290.87.9,313.87,15.51c23.33,14.24,40.48,35.66,52.66,57.86,24.34,45,31.07,93.71,32.31,130.89,1.15,37.41-3,64.12-5.1,70.54-.32.08,8.37-54.55-.07-113-4-29.12-12.75-58.84-24.07-81.17-11-22.45-24.35-37-27.66-39.35a169,169,0,0,1,21.23,31.22c10.65,19.52,20,46.86,24.72,74.73,10.11,56,2.09,112.29-1.56,119.8-.2.13,7-50.07-1.34-103.54-3.94-26.58-12.14-53.61-22.61-73.84-10.31-20.33-22.56-33.32-27.27-35.51C336,53.35,366,95,372.87,144.47c9.13,48.89,2.91,100-1.69,110.42.37.1,4-34.38,2-43.61-.62,5.39-1.1,10.77-1.92,16.11,0-8.58-.38-17.15-.89-25.75.16-5,.4-10,.38-15,.57.1-2.26,40.7-5.76,43.36,0,0,.93,4.51,1.57.07.37-4.38,1.92-18.13-3.65-53.64a190.45,190.45,0,0,0-3.7-30.43c-4-19.22-11.44-49.14-35.12-78.11-11.86-13.94-29-27.42-50.38-30.61-21.33-3.52-44.24,6.21-60.26,24.39C180.73,98.54,169.42,157.75,171.06,218.88Z" fill="#e6e4e3"/><path d="M255.61,400.22s2.43,1.41-1.57,1.4l-3.2.61q-1.19.71-2.38,1.36l-2.32-.45c-.27-.1.92-2.88-8.13-41.32,0,0-1.05-3.79-2.39-10.38s-3.13-15.94-2.4-27.69a46,46,0,0,1,1.12-7.49,33.63,33.63,0,0,1,3.23-8.84,23,23,0,0,1,9.49-9.46,27.49,27.49,0,0,1,14.79-2.86c5.62.14,12.8,4.53,15.28,10.49,5,11.58,3,22.3,1,32.69-4.76,19-7.75,39.57-14.34,55.17A99.3,99.3,0,0,1,258.86,404l-1.27,2.29-.15.29-.08.12,0,.08,0,0c-2.92.94,6.48-2.07-6.53,2.14l-.7-.4c-.45-.27-.92-.5-1.34-.81a17.28,17.28,0,0,1-4.27-4.11,19.82,19.82,0,0,1-3.61-12.57,26.8,26.8,0,0,0,.55,4.95,18,18,0,0,0,8,11.78l1,.57.25.13.14.08.06,0,0,0c2.72-.88-6.06,2,6.13-2l.23-.4.91-1.65q1-1.69,1.86-3.53c1.23-2.46,2.42-5.13,3.53-7.89a149.22,149.22,0,0,0,5.87-17.79c3.26-12.25,5.51-25,7.81-33.95,2.77-10.22,2.85-18.13,2.67-19.84a73.43,73.43,0,0,1-2,15.52c-2.44,8.57-4.58,19.79-7.51,31.64s-6.88,23.85-11.67,32.63c-.54,1.13-1.19,2.17-1.75,3.16l-.85,1.48,0,.08c4.2-1.35-5.71,1.87-4.71,1.53h0l0,0-.23-.13-.43-.25-.83-.49a15.49,15.49,0,0,1-4.8-5,15.7,15.7,0,0,1-2.23-7.19,18.65,18.65,0,0,0,1.19,4.34,15.09,15.09,0,0,0,2.85,4.59,14,14,0,0,0,2.51,2.29,12.67,12.67,0,0,0,1.53,1l.4.22.21.12.09,0,0,0c-.87.3,7.56-2.44,4-1.28v-.05l.39-.72c4.42-7.57,8.81-18.61,11.72-30.11s5.06-23.24,7.07-32.42c2.51-9.14,2.79-17,2.41-19a74.72,74.72,0,0,1-2,13.38c-2.22,7.59-4.29,17.86-6.9,28.54s-5.95,21.54-10,29.81c-1,2.09-2,4-3,5.72-.5.86-1,1.68-1.45,2.46-.48.4.1.69-1.24,1.19L251.6,404a10.94,10.94,0,0,1-4.19-5.27c-.07-.25,1.69,4.21,5.65,5.37a69.86,69.86,0,0,0,5.11-10.38c-1.08,2.22-2.23,4.36-3.45,6.5a117.82,117.82,0,0,0,4.69-10.82c.87-2.09,1.74-4.21,2.51-6.34.38.19-7.34,17-8.82,17.6,0,0-.82,1.9.25.2.88-1.82,4.42-7.09,8.81-23.13.1.12,6-18.93,11.6-52.91a37.49,37.49,0,0,0-1.36-13.35c-1.28-4.44-4.8-8.65-9.81-9.21-4.81-.59-10.41.54-14.37,3.85s-5.89,9-6.46,14.66c-1.13,11.58,1.41,24.17,4.38,37.16C249,371.12,253.48,384.29,255.61,400.22Z" fill="#e6e4e3"/><polygon points="251.56 395.46 238.45 342.97 238.45 320.46 244.37 304.96 256.67 298.96 266.88 298.96 275.28 308.48 277.25 319.98 268.63 351.99 258.17 393.75 251.56 395.46" fill="#e6e4e3"/><path d="M268,378s3.59-1.5-1.3,2.44l-3.64,3.5q-1.17,1.46-2.4,2.88l-3,2.05c0,.12-.46-.4-2.54-1.65-1-.57-2.44-1.25-3.6-.87-1,.19-2.71,1-4.86,4.34.19-.45-3.19,7-2.17,13.53a5.31,5.31,0,0,0,2.59,4.24c1.25,1,5.34,1.87,8.2,1.65a13.2,13.2,0,0,0,8.6-4.7c5.61-5.67,7.63-17.67,5.87-21.34-.76-1.25.34-.93-1.38-1.25a26,26,0,0,0-3.8.49c-.23.12,3.15-1.4,4.73-.87.6.32.24.2.89,1.45a16,16,0,0,1,.45,6.53,29.61,29.61,0,0,1-5.79,14.19c-2.62,3.15-4.8,4.24-5.12,4.75a15.06,15.06,0,0,0,4.47-3.13,28,28,0,0,0,6.93-12.77c1.61-5.47.45-11.24-.6-12-.77-1.45-4.85-.82-5.61-.94-.16.05,3-1.18,5.21-.42,1.82.15,3.82,4.54,3.22,10.47a33.56,33.56,0,0,1-5.4,15.27c-2.48,3.89-5,5.76-5.49,6.8-.15.47,9.31-4.92,12.65-17,1.69-5.6,2.07-12.2-.31-16.26-2.41-4.31-7.37-4.06-8.79-4.34a12.79,12.79,0,0,1,5,.32c2.63.66,4.47,3,5.18,3.92a8.91,8.91,0,0,0-2.63-3.57,10.52,10.52,0,0,1,4.42,5.64,18.09,18.09,0,0,1,.48,4.07,18.64,18.64,0,0,0-.78-5.72c-.78-3-3.59-5.62-4-6.06,0,0-1.53-.42-.22.4,1,.57,6.67,3.47,7.22,14.36A40.45,40.45,0,0,1,279,397c-1.63,5.25-4.64,13.55-13.15,19.73a23.47,23.47,0,0,1-16.44,3.94c-6.09-.29-14-3.77-17-11.93-2.81-7.84-1.76-17,2.81-25.5,2.43-4.14,6-8.82,12.87-11C255.35,370,263.64,373.83,268,378Z" fill="#e6e4e3"/><polygon points="252.14 413.91 266.64 407.65 271.08 393.49 267.99 378.04 261.17 378.04 240.14 381.91 238.74 403.76 252.14 413.91" fill="#e6e4e3"/></svg>